<?xml version="1.0" encoding="UTF-8"?>
<svg width="512px" height="512px" viewBox="0 0 512 512" version="1.1" xmlns="http://www.w3.org/2000/svg" xmlns:xlink="http://www.w3.org/1999/xlink">
    <title>icon</title>
    <g id="icon" stroke="none" stroke-width="1" fill="none" fill-rule="evenodd">
        <rect fill="#FFEFBA" x="0" y="0" width="512" height="512"></rect>
        <path d="M149.817407,76.7324516 C109.93623,98.2760861 89.9956414,129.049677 89.9956414,169.053223 C89.9956414,229.058543 149.817407,251.138974 149.817407,328.369086 C149.817407,379.855827 129.876818,411.556982 89.9956414,423.47255" id="Path-13" stroke="#000000" stroke-width="20"></path>
        <path d="M276.995641,76.7324516 C212.328975,98.2760861 179.995641,129.049677 179.995641,169.053223 C179.995641,229.058543 276.995641,251.138974 276.995641,328.369086 C276.995641,379.855827 244.662308,411.556982 179.995641,423.47255" id="Path-13" stroke="#000000" stroke-width="20"></path>
        <path d="M421.995641,76.7324516 C334.662308,98.2760861 290.995641,129.049677 290.995641,169.053223 C290.995641,229.058543 421.995641,251.138974 421.995641,328.369086 C421.995641,379.855827 378.328975,411.556982 290.995641,423.47255" id="Path-13" stroke="#000000" stroke-width="20"></path>
        <line x1="364" y1="423" x2="364" y2="77" id="Line-4" stroke="#000000" stroke-width="20" stroke-linecap="square"></line>
    </g>
</svg>