<?xml version="1.0" encoding="UTF-8"?>
<svg width="655px" height="655px" viewBox="0 0 655 655" version="1.1" xmlns="http://www.w3.org/2000/svg" xmlns:xlink="http://www.w3.org/1999/xlink">
    <title>Artboard</title>
    <g id="Artboard" stroke="none" stroke-width="1" fill="none" fill-rule="evenodd">
        <rect fill="#AD1CC2" x="0" y="0" width="655" height="655"></rect>
        <path d="M259.942446,409 C262.807354,409 264.866507,408.73088 266.119904,408.192641 C267.373301,407.654401 268,406.129389 268,403.617605 C268,400.746994 266.567546,399.042569 263.702638,398.504329 C260.83773,397.966089 257.614708,397.248437 254.033573,396.351371 C250.452438,395.454305 247.229416,393.660173 244.364508,390.968975 C241.4996,388.277778 240.067146,383.164502 240.067146,375.629149 L240.067146,241.069264 C240.067146,217.386724 233.80016,198.279221 221.266187,183.746753 C208.732214,169.214286 192.43805,161.948052 172.383693,161.948052 C162.714628,161.948052 154.388489,163.562771 147.405276,166.792208 C140.422062,170.021645 133.170264,174.865801 125.64988,181.324675 C118.48761,187.424723 113.384492,193.076239 110.340528,198.279221 C107.296563,203.482203 105.058353,206.083694 103.625899,206.083694 C102.551559,206.083694 102.014388,204.110149 102.014388,200.163059 L102.014388,47.8412698 C102.014388,39.9470899 100.760991,36 98.2541966,36 C96.4636291,36 93.1510791,37.7044252 88.3165468,41.1132756 C83.4820144,44.522126 76.4092726,47.8412698 67.0983213,51.0707071 C61.3685052,52.8648389 56.3549161,54.1207311 52.057554,54.8383838 C47.7601918,55.5560366 45.6115108,57.8884079 45.6115108,61.8354978 C45.6115108,65.0649351 46.8649081,66.6796537 49.3717026,66.6796537 C51.1622702,66.6796537 52.5051958,66.5899471 53.4004796,66.4105339 C54.2957634,66.2311207 54.922462,66.1414141 55.2805755,66.1414141 C66.3820943,66.1414141 71.9328537,74.2150072 71.9328537,90.3621934 L71.9328537,375.629149 C71.9328537,382.805676 70.5003997,387.739538 67.6354916,390.430736 C64.7705835,393.121934 61.547562,395.005772 57.9664269,396.082251 C54.3852918,397.15873 51.1622702,397.966089 48.2973621,398.504329 C45.432454,399.042569 44,400.746994 44,403.617605 C44,406.488215 44.716227,408.102934 46.1486811,408.46176 C47.5811351,408.820587 49.9088729,409 53.1318945,409 C57.0711431,409 61.8161471,408.641174 67.3669065,407.923521 C72.9176659,407.205868 79.4532374,406.847042 86.9736211,406.847042 C96.2845723,406.847042 103.804956,407.205868 109.534772,407.923521 C115.264588,408.641174 119.382894,409 121.889688,409 C124.754596,409 126.813749,408.73088 128.067146,408.192641 C129.320544,407.654401 129.947242,406.129389 129.947242,403.617605 C129.947242,400.746994 128.514788,399.042569 125.64988,398.504329 C122.784972,397.966089 119.56195,397.248437 115.980815,396.351371 C112.39968,395.454305 109.176659,393.660173 106.311751,390.968975 C103.446843,388.277778 102.014388,383.164502 102.014388,375.629149 L102.014388,277.131313 C102.014388,246.272246 106.401279,222.948533 115.17506,207.160173 C123.948841,191.371813 138.541966,183.477633 158.954436,183.477633 C178.292566,183.477633 191.721823,190.474747 199.242206,204.468975 C206.76259,218.463203 210.522782,239.454545 210.522782,267.443001 L210.522782,375.629149 C210.522782,382.805676 209.000799,387.739538 205.956835,390.430736 C202.91287,393.121934 199.689848,395.005772 196.28777,396.082251 C192.885691,397.15873 189.66267,397.966089 186.618705,398.504329 C183.57474,399.042569 182.052758,400.746994 182.052758,403.617605 C182.052758,406.488215 182.768985,408.102934 184.201439,408.46176 C185.633893,408.820587 187.961631,409 191.184652,409 C195.123901,409 199.868905,408.641174 205.419664,407.923521 C210.970424,407.205868 217.505995,406.847042 225.026379,406.847042 C234.33733,406.847042 241.857714,407.205868 247.58753,407.923521 C253.317346,408.641174 257.435651,409 259.942446,409 Z M472.027397,620 C474.180822,620 476.693151,615.691358 479.564384,607.074074 L566.239726,330.782407 C569.469863,320.728909 572.969178,312.470679 576.737671,306.007716 C580.506164,299.544753 583.826027,295.236111 586.69726,293.08179 C589.209589,290.927469 591.991096,289.401492 595.041781,288.503858 C598.092466,287.606224 600.873973,286.798354 603.386301,286.080247 C605.89863,285.36214 607.962329,284.55427 609.577397,283.656636 C611.192466,282.759002 612,281.053498 612,278.540123 C612,273.513374 609.128767,271 603.386301,271 C601.232877,271 597.55411,271.53858 592.35,272.615741 C587.14589,273.692901 580.416438,274.231481 572.161644,274.231481 C565.70137,274.231481 560.317808,273.692901 556.010959,272.615741 C551.70411,271.53858 548.294521,271 545.782192,271 C541.475342,271 539.321918,273.154321 539.321918,277.462963 C539.321918,281.053498 540.39863,283.477109 542.552055,284.733796 C544.705479,285.990484 546.94863,286.977881 549.281507,287.695988 C551.614384,288.414095 553.857534,289.491255 556.010959,290.927469 C558.164384,292.363683 559.241096,294.877058 559.241096,298.467593 C559.241096,304.930556 556.369863,317.497428 550.627397,336.16821 L488.178082,537.058642 C486.383562,542.803498 484.589041,545.675926 482.794521,545.675926 C480.641096,545.675926 478.667123,543.162551 476.872603,538.135802 L439.726027,427.188272 C439.367123,426.470165 439.187671,425.393004 439.187671,423.95679 C439.187671,420.007202 439.546575,416.77572 440.264384,414.262346 L442.417808,406.722222 L469.335616,330.782407 C476.154795,310.675412 482.973973,298.108539 489.793151,293.08179 C492.664384,290.927469 495.625342,289.401492 498.676027,288.503858 C501.726712,287.606224 504.418493,286.798354 506.75137,286.080247 C509.084247,285.36214 511.058219,284.55427 512.673288,283.656636 C514.288356,282.759002 515.09589,281.053498 515.09589,278.540123 C515.09589,273.513374 512.40411,271 507.020548,271 C504.508219,271 500.829452,271.53858 495.984247,272.615741 C491.139041,273.692901 485.127397,274.231481 477.949315,274.231481 C470.412329,274.231481 464.221233,273.692901 459.376027,272.615741 C454.530822,271.53858 451.031507,271 448.878082,271 C444.571233,271 442.417808,273.154321 442.417808,277.462963 C442.417808,281.053498 443.494521,283.477109 445.647945,284.733796 C447.80137,285.990484 450.223973,287.067644 452.915753,287.965278 C455.607534,288.862912 458.030137,290.029835 460.183562,291.466049 C462.336986,292.902263 463.413699,295.774691 463.413699,300.083333 C463.413699,300.80144 462.785616,304.391975 461.529452,310.854938 C460.273288,317.317901 457.671233,325.755658 453.723288,336.16821 L437.034247,379.79321 C434.880822,385.897119 432.906849,388.949074 431.112329,388.949074 C428.958904,388.949074 426.805479,386.076646 424.652055,380.33179 L404.194521,321.087963 C402.4,316.420267 401.233562,312.291152 400.695205,308.700617 C400.156849,305.110082 399.887671,302.237654 399.887671,300.083333 C399.887671,295.774691 400.964384,292.902263 403.117808,291.466049 C405.271233,290.029835 407.60411,288.952675 410.116438,288.234568 C412.628767,287.516461 414.961644,286.708591 417.115068,285.810957 C419.268493,284.913323 420.345205,282.669239 420.345205,279.078704 C420.345205,274.051955 418.371233,271.53858 414.423288,271.53858 C412.628767,271.53858 409.488356,271.987397 405.002055,272.885031 C400.515753,273.782665 394.683562,274.231481 387.505479,274.231481 C378.891781,274.231481 370.99589,273.692901 363.817808,272.615741 C356.639726,271.53858 350.179452,271 344.436986,271 C337.976712,271 334.746575,273.513374 334.746575,278.540123 C334.746575,282.848765 336.45137,285.182613 339.860959,285.541667 C343.270548,285.90072 346.590411,286.977881 349.820548,288.773148 C354.486301,291.645576 358.075342,295.864455 360.587671,301.429784 C363.1,306.995113 365.791781,314.08642 368.663014,322.703704 L409.578082,440.114198 C410.29589,441.909465 410.654795,445.140947 410.654795,449.808642 C410.654795,452.322016 409.936986,455.194444 408.50137,458.425926 L379.968493,538.674383 C377.815068,544.419239 375.661644,547.291667 373.508219,547.291667 C372.072603,547.291667 370.278082,544.239712 368.124658,538.135802 L291.678082,310.854938 C290.960274,309.059671 290.421918,307.264403 290.063014,305.469136 C289.70411,303.673868 289.524658,301.878601 289.524658,300.083333 C289.524658,295.774691 290.60137,292.902263 292.754795,291.466049 C294.908219,290.029835 297.330822,289.042438 300.022603,288.503858 C302.714384,287.965278 305.136986,287.157407 307.290411,286.080247 C309.443836,285.003086 310.520548,282.669239 310.520548,279.078704 C310.520548,274.411008 308.546575,272.07716 304.59863,272.07716 C301.727397,272.07716 298.138356,272.436214 293.831507,273.154321 C289.524658,273.872428 284.141096,274.231481 277.680822,274.231481 C269.426027,274.231481 261.799315,273.692901 254.800685,272.615741 C247.802055,271.53858 241.252055,271 235.150685,271 L230.843836,271 C222.947945,271 219,273.333848 219,278.001543 C219,281.233025 220.34589,283.207819 223.037671,283.925926 C225.729452,284.644033 228.959589,285.451903 232.728082,286.349537 C236.496575,287.247171 240.354795,289.221965 244.30274,292.27392 C248.250685,295.325874 251.660274,300.980967 254.531507,309.239198 L344.436986,572.066358 C349.820548,587.864712 353.678767,599.803241 356.011644,607.881944 C358.344521,615.960648 360.408219,620 362.20274,620 C364.715068,620 367.406849,615.691358 370.278082,607.074074 L414.423288,482.662037 C415.858904,478.353395 417.473973,476.199074 419.268493,476.199074 C421.063014,476.199074 422.678082,478.532922 424.113699,483.200617 L454.261644,572.066358 C459.645205,588.223765 463.413699,600.252058 465.567123,608.151235 C467.720548,616.050412 469.873973,620 472.027397,620 Z" id="hW" fill="#000000" fill-rule="nonzero"></path>
    </g>
</svg>